<?xml version="1.0" encoding="UTF-8"?>
<svg id="uuid-99a8d469-426e-48fe-ab16-c7490ac539a9" data-name="Layer 1" xmlns="http://www.w3.org/2000/svg" xmlns:xlink="http://www.w3.org/1999/xlink" viewBox="0 0 480.86 88.06">
  <defs>
    <style>
      .uuid-a78811c6-ee02-418e-9e8d-ee6f691092fa {
        fill: #231f20;
      }

      .uuid-ece0d693-9b25-40f8-a672-4fff7a64c257 {
        fill: url(#uuid-6fc264ed-c82f-4b7f-a7ac-f6ac9fb494cd);
      }
    </style>
    <linearGradient id="uuid-6fc264ed-c82f-4b7f-a7ac-f6ac9fb494cd" x1="1971.26" y1="160.05" x2="2200.7" y2="160.05" gradientTransform="translate(2200.7 204.08) rotate(-180)" gradientUnits="userSpaceOnUse">
      <stop offset=".08" stop-color="#056a38"/>
      <stop offset=".11" stop-color="#046d3c"/>
      <stop offset=".15" stop-color="#04754b"/>
      <stop offset=".18" stop-color="#028463"/>
      <stop offset=".22" stop-color="#019884"/>
      <stop offset=".24" stop-color="#00a79c"/>
      <stop offset=".26" stop-color="#0aa995"/>
      <stop offset=".29" stop-color="#25af84"/>
      <stop offset=".32" stop-color="#51b867"/>
      <stop offset=".36" stop-color="#8ec540"/>
      <stop offset=".36" stop-color="#90c640"/>
      <stop offset=".64" stop-color="#8fc640"/>
      <stop offset=".65" stop-color="#8bc542"/>
      <stop offset=".66" stop-color="#80c249"/>
      <stop offset=".67" stop-color="#6ebe55"/>
      <stop offset=".69" stop-color="#54b965"/>
      <stop offset=".7" stop-color="#32b27b"/>
      <stop offset=".71" stop-color="#0aa995"/>
      <stop offset=".71" stop-color="#00a79c"/>
      <stop offset=".75" stop-color="#009b88"/>
      <stop offset=".82" stop-color="#028565"/>
      <stop offset=".89" stop-color="#03754c"/>
      <stop offset=".95" stop-color="#036c3d"/>
      <stop offset="1" stop-color="#046938"/>
    </linearGradient>
  </defs>
  <g>
    <g>
      <polygon class="uuid-a78811c6-ee02-418e-9e8d-ee6f691092fa" points="252.74 8.975 252.95 8.975 259.44 25.055 262.48 25.055 268.97 9.005 269.19 9.005 269.19 25.125 273.26 25.125 273.26 1.665 268.06 1.665 261.1 18.665 260.82 18.665 253.86 1.665 248.66 1.665 248.66 25.125 252.74 25.125 252.74 8.975"/>
      <path class="uuid-a78811c6-ee02-418e-9e8d-ee6f691092fa" d="M280.52,24.585c.88.52,1.9.77,3.05.77,1.32,0,2.43-.31,3.34-.94s1.56-1.43,1.95-2.42h.18v3.13h4.02V7.525h-4.15v10.2c0,.89-.19,1.64-.56,2.23-.37.59-.84,1.04-1.41,1.33-.57.3-1.16.45-1.78.45-.99,0-1.79-.33-2.41-.98s-.92-1.54-.92-2.66V7.535h-4.15v11.2c0,1.41.25,2.6.74,3.59.5.99,1.18,1.74,2.07,2.26h.03Z"/>
      <path class="uuid-a78811c6-ee02-418e-9e8d-ee6f691092fa" d="M310.38,16.795c-.81-.78-2.05-1.35-3.72-1.71l-3-.64c-.89-.21-1.53-.47-1.92-.79-.39-.32-.58-.74-.57-1.25,0-.6.28-1.08.87-1.45.58-.37,1.31-.56,2.17-.56.64,0,1.18.1,1.63.31.44.21.8.48,1.06.81s.45.7.56,1.08l3.78-.41c-.28-1.5-1.02-2.68-2.21-3.56s-2.81-1.32-4.87-1.32c-1.41,0-2.64.22-3.72.66s-1.91,1.06-2.51,1.86-.89,1.74-.89,2.82c0,1.28.39,2.34,1.2,3.18s2.06,1.43,3.75,1.78l3,.63c.81.18,1.41.43,1.79.76.39.33.58.74.58,1.25,0,.6-.3,1.1-.9,1.5-.6.41-1.39.61-2.38.61s-1.73-.2-2.33-.61c-.6-.4-.98-1-1.17-1.8l-4.04.39c.25,1.62,1.03,2.88,2.35,3.79,1.31.91,3.05,1.36,5.2,1.36,1.47,0,2.76-.24,3.89-.71s2.01-1.13,2.65-1.98.96-1.82.97-2.93c0-1.26-.42-2.28-1.23-3.06l.01-.01Z"/>
      <path class="uuid-a78811c6-ee02-418e-9e8d-ee6f691092fa" d="M328.26,9.435c-.74-.73-1.6-1.26-2.57-1.61s-1.99-.52-3.08-.52c-1.68,0-3.14.38-4.39,1.15-1.24.77-2.21,1.84-2.9,3.21-.69,1.37-1.04,2.96-1.04,4.77s.34,3.44,1.03,4.79c.69,1.36,1.67,2.4,2.95,3.14s2.8,1.11,4.56,1.11c1.37,0,2.58-.21,3.64-.62s1.93-1,2.62-1.76,1.15-1.65,1.39-2.68l-3.87-.44c-.18.5-.45.91-.81,1.25s-.78.59-1.27.76-1.03.26-1.64.26c-.9,0-1.69-.19-2.36-.58s-1.2-.94-1.57-1.67c-.36-.7-.54-1.55-.56-2.53h12.25v-1.27c0-1.54-.21-2.87-.64-3.99-.43-1.12-1.01-2.04-1.76-2.77h.02ZM318.41,14.665c.04-.69.21-1.33.53-1.92.35-.66.85-1.2,1.49-1.6.64-.41,1.39-.61,2.23-.61.79,0,1.49.18,2.09.54s1.07.85,1.4,1.47c.34.62.51,1.33.52,2.12h-8.27.01Z"/>
      <path class="uuid-a78811c6-ee02-418e-9e8d-ee6f691092fa" d="M336.97,24.585c.88.52,1.9.77,3.05.77,1.32,0,2.43-.31,3.34-.94s1.56-1.43,1.95-2.42h.18v3.13h4.02V7.525h-4.15v10.2c0,.89-.19,1.64-.56,2.23-.37.59-.84,1.04-1.41,1.33-.57.3-1.16.45-1.78.45-.99,0-1.79-.33-2.41-.98s-.92-1.54-.92-2.66V7.535h-4.15v11.2c0,1.41.25,2.6.74,3.59.5.99,1.18,1.74,2.07,2.26h.03Z"/>
      <path class="uuid-a78811c6-ee02-418e-9e8d-ee6f691092fa" d="M357.93,14.425c0-.73.14-1.36.44-1.91.29-.55.68-.97,1.17-1.27s1.03-.45,1.63-.45c.88,0,1.59.27,2.14.81s.82,1.27.82,2.18v11.34h4.07v-10.97c0-.99.28-1.8.84-2.42s1.34-.93,2.34-.93c.84,0,1.55.25,2.13.76s.87,1.31.87,2.4v11.17h4.16v-11.81c0-1.96-.51-3.46-1.54-4.48s-2.34-1.54-3.96-1.54c-1.28,0-2.38.29-3.3.88-.93.58-1.59,1.37-1.98,2.34h-.18c-.34-.99-.92-1.78-1.74-2.35s-1.83-.87-3.02-.87-2.19.29-3.04.85c-.85.57-1.45,1.36-1.82,2.37h-.21v-2.99h-3.96v17.6h4.15v-10.7l-.01-.01Z"/>
      <path class="uuid-a78811c6-ee02-418e-9e8d-ee6f691092fa" d="M393.96,24.335c1.26.76,2.75,1.13,4.47,1.13s3.21-.38,4.47-1.13,2.24-1.81,2.93-3.17c.69-1.36,1.04-2.95,1.04-4.76s-.34-3.41-1.04-4.78-1.67-2.43-2.93-3.18-2.75-1.13-4.47-1.13-3.21.38-4.47,1.13-2.24,1.82-2.93,3.18-1.04,2.96-1.04,4.78.34,3.41,1.04,4.76c.69,1.36,1.67,2.42,2.93,3.17ZM394.66,13.455c.31-.87.78-1.57,1.41-2.09s1.42-.78,2.38-.78,1.71.26,2.34.78,1.09,1.22,1.4,2.09.46,1.85.46,2.93-.16,2.04-.46,2.91c-.31.87-.78,1.56-1.4,2.08s-1.41.77-2.34.77-1.75-.26-2.38-.77-1.1-1.21-1.41-2.08-.46-1.84-.46-2.91.15-2.05.46-2.93Z"/>
      <path class="uuid-a78811c6-ee02-418e-9e8d-ee6f691092fa" d="M411.47,25.125h4.16v-14.39h3.64v-3.21h-3.64v-1.39c0-.69.16-1.22.48-1.59.32-.37.86-.56,1.63-.56.33,0,.63.03.89.09s.49.11.66.17l.82-3.21c-.27-.09-.68-.19-1.24-.31s-1.2-.17-1.91-.17c-1.02,0-1.94.2-2.77.58-.83.39-1.5.98-1.99,1.76s-.74,1.77-.74,2.96v1.66h-2.6v3.21h2.6v14.39l.01.01Z"/>
      <path class="uuid-a78811c6-ee02-418e-9e8d-ee6f691092fa" d="M431.7,20.515c0,1.1.23,2.02.72,2.75.48.73,1.14,1.27,1.98,1.62.83.35,1.77.51,2.81.47.59-.02,1.09-.07,1.49-.16.41-.09.72-.18.95-.25l-.7-3.24c-.11.03-.28.07-.5.1-.22.04-.46.06-.72.06-.34,0-.66-.05-.94-.16s-.51-.31-.68-.6c-.17-.29-.26-.72-.26-1.28v-9.1h3.47v-3.21h-3.47V3.295h-4.15v4.22h-2.5v3.21h2.5v9.79Z"/>
      <path class="uuid-a78811c6-ee02-418e-9e8d-ee6f691092fa" d="M449.14,11.285c.58-.32,1.23-.48,1.96-.48,1.09,0,1.94.33,2.55.99s.91,1.58.91,2.77v10.56h4.15v-11.2c0-1.42-.25-2.62-.75-3.61-.5-.98-1.21-1.73-2.11-2.24-.91-.51-1.97-.77-3.2-.77-1.34,0-2.45.29-3.32.87s-1.51,1.36-1.92,2.35h-.21V1.675h-4.05v23.46h4.15v-10.31c0-.85.16-1.57.49-2.17.32-.6.78-1.05,1.35-1.37h0Z"/>
      <path class="uuid-a78811c6-ee02-418e-9e8d-ee6f691092fa" d="M466.15,24.365c1.28.74,2.8,1.11,4.56,1.11,1.37,0,2.58-.21,3.64-.62s1.93-1,2.62-1.76,1.15-1.65,1.39-2.68l-3.87-.44c-.18.5-.45.91-.81,1.25s-.78.59-1.27.76-1.03.26-1.64.26c-.9,0-1.69-.19-2.36-.58s-1.2-.94-1.57-1.67c-.36-.7-.54-1.55-.56-2.53h12.25v-1.27c0-1.54-.21-2.87-.64-3.99-.43-1.12-1.01-2.04-1.76-2.77-.74-.73-1.6-1.26-2.57-1.61s-1.99-.52-3.08-.52c-1.68,0-3.14.38-4.39,1.15-1.24.77-2.21,1.84-2.9,3.21-.69,1.37-1.04,2.96-1.04,4.77s.34,3.44,1.03,4.79c.69,1.36,1.67,2.4,2.95,3.14h.02ZM468.32,11.145c.64-.41,1.39-.61,2.23-.61.79,0,1.49.18,2.09.54.6.36,1.07.85,1.4,1.47.34.62.51,1.33.52,2.12h-8.27c.04-.69.21-1.33.53-1.92.35-.66.85-1.2,1.49-1.6h.01Z"/>
    </g>
    <g>
      <polygon class="uuid-a78811c6-ee02-418e-9e8d-ee6f691092fa" points="271.58 38.585 267.9 53.625 267.72 53.625 263.77 38.585 260.15 38.585 256.21 53.615 256.02 53.615 252.34 38.585 248.35 38.585 254.13 59.035 257.78 59.035 261.89 44.685 262.05 44.685 266.14 59.035 269.8 59.035 275.57 38.585 271.58 38.585"/>
      <path class="uuid-a78811c6-ee02-418e-9e8d-ee6f691092fa" d="M287.92,49.825v9.21h3.61v-9.77c0-1.24-.22-2.29-.65-3.15-.44-.86-1.05-1.51-1.84-1.96-.79-.45-1.72-.67-2.79-.67-1.17,0-2.14.25-2.89.75-.76.5-1.31,1.19-1.67,2.05h-.18v-7.72h-3.53v20.45h3.61v-8.99c0-.74.14-1.37.42-1.89s.68-.92,1.18-1.19c.5-.28,1.07-.41,1.71-.41.95,0,1.69.29,2.22.86s.79,1.38.79,2.41l.01.02Z"/>
      <g>
        <path class="uuid-a78811c6-ee02-418e-9e8d-ee6f691092fa" d="M297.03,41.525c.58,0,1.07-.19,1.48-.57s.61-.84.61-1.38-.2-1-.61-1.39-.9-.58-1.48-.58-1.07.19-1.48.57-.62.84-.62,1.38.21,1,.62,1.39.91.58,1.48.58Z"/>
        <rect class="uuid-a78811c6-ee02-418e-9e8d-ee6f691092fa" x="295.21" y="43.695" width="3.61" height="15.34"/>
      </g>
      <path class="uuid-a78811c6-ee02-418e-9e8d-ee6f691092fa" d="M309.44,56.155c-.19.03-.4.05-.62.05-.3,0-.57-.05-.82-.14s-.44-.27-.59-.52c-.15-.26-.23-.63-.23-1.11v-7.93h3.03v-2.8h-3.03v-3.68h-3.61v3.68h-2.18v2.8h2.18v8.53c0,.96.2,1.76.62,2.4.42.64,1,1.11,1.72,1.41s1.54.44,2.45.41c.51-.01.95-.06,1.3-.14.36-.08.63-.15.82-.22l-.61-2.83c-.1.03-.24.06-.43.09Z"/>
      <path class="uuid-a78811c6-ee02-418e-9e8d-ee6f691092fa" d="M315.88,58.375c1.11.64,2.44.96,3.98.96,1.19,0,2.25-.18,3.18-.54.92-.36,1.69-.87,2.28-1.54.6-.66,1-1.44,1.21-2.33l-3.38-.38c-.16.43-.4.8-.71,1.09s-.68.51-1.11.66c-.43.15-.9.23-1.43.23-.79,0-1.47-.17-2.06-.5-.59-.34-1.04-.82-1.37-1.46-.32-.61-.47-1.35-.49-2.2h10.68v-1.11c0-1.34-.19-2.51-.56-3.48-.37-.98-.88-1.78-1.53-2.41s-1.39-1.1-2.24-1.4c-.84-.3-1.74-.45-2.68-.45-1.46,0-2.74.34-3.82,1-1.09.67-1.93,1.6-2.53,2.8-.6,1.19-.9,2.58-.9,4.16s.3,3,.9,4.18,1.46,2.09,2.57,2.74l.01-.02ZM317.77,46.845c.56-.36,1.21-.53,1.95-.53.69,0,1.3.16,1.82.47s.93.74,1.22,1.28.44,1.16.45,1.85h-7.21c.04-.6.18-1.16.46-1.67.31-.58.74-1.04,1.3-1.4h.01Z"/>
      <polygon class="uuid-a78811c6-ee02-418e-9e8d-ee6f691092fa" points="354.77 44.985 354.77 59.035 358.33 59.035 358.33 38.585 353.79 38.585 347.72 53.405 347.48 53.405 341.41 38.585 336.87 38.585 336.87 59.035 340.43 59.035 340.43 44.955 340.62 44.955 346.27 58.975 348.93 58.975 354.58 44.985 354.77 44.985"/>
      <path class="uuid-a78811c6-ee02-418e-9e8d-ee6f691092fa" d="M368.89,59.335c1.5,0,2.8-.33,3.89-.99s1.95-1.58,2.55-2.77c.6-1.18.9-2.57.9-4.15s-.3-2.97-.9-4.16c-.6-1.19-1.45-2.12-2.55-2.78s-2.4-.99-3.89-.99-2.8.33-3.89.99-1.95,1.58-2.55,2.78c-.6,1.19-.9,2.58-.9,4.16s.3,2.97.9,4.15c.6,1.19,1.45,2.11,2.55,2.77s2.4.99,3.89.99ZM365.61,48.865c.27-.76.68-1.37,1.23-1.82.55-.45,1.24-.68,2.07-.68s1.49.23,2.04.68c.55.45.95,1.06,1.22,1.82s.4,1.61.4,2.55-.13,1.78-.4,2.54c-.27.76-.68,1.36-1.22,1.81-.55.45-1.22.67-2.04.67s-1.52-.22-2.07-.67-.96-1.05-1.23-1.81c-.27-.76-.4-1.6-.4-2.54s.13-1.79.4-2.55Z"/>
      <path class="uuid-a78811c6-ee02-418e-9e8d-ee6f691092fa" d="M381.75,58.565c.77.45,1.66.67,2.66.67,1.15,0,2.12-.27,2.91-.82.79-.55,1.36-1.25,1.7-2.11h.16v2.73h3.5v-15.34h-3.61v8.89c0,.78-.16,1.43-.48,1.94s-.73.9-1.23,1.16c-.5.26-1.02.39-1.55.39-.87,0-1.56-.29-2.1-.86-.53-.57-.8-1.34-.8-2.32v-9.21h-3.61v9.77c0,1.23.22,2.27.65,3.13s1.03,1.52,1.8,1.97v.01Z"/>
      <path class="uuid-a78811c6-ee02-418e-9e8d-ee6f691092fa" d="M405.46,47.425c.53.58.79,1.38.79,2.41v9.21h3.62v-9.77c0-1.23-.21-2.27-.64-3.13s-1.05-1.51-1.84-1.97c-.79-.45-1.71-.68-2.77-.68-1.15,0-2.11.25-2.88.76-.78.51-1.34,1.19-1.69,2.05h-.18v-2.61h-3.45v15.34h3.61v-8.99c0-.74.14-1.37.41-1.89s.66-.92,1.15-1.19,1.05-.41,1.68-.41c.93,0,1.66.29,2.19.87h0Z"/>
      <path class="uuid-a78811c6-ee02-418e-9e8d-ee6f691092fa" d="M416.92,58.835c.73.3,1.54.44,2.45.41.51-.01.95-.06,1.3-.14.36-.08.63-.15.82-.22l-.61-2.83c-.1.03-.24.06-.43.09s-.4.05-.62.05c-.3,0-.57-.05-.82-.14s-.44-.27-.59-.52c-.15-.26-.23-.63-.23-1.11v-7.93h3.03v-2.8h-3.03v-3.68h-3.61v3.68h-2.18v2.8h2.18v8.53c0,.96.2,1.76.62,2.4s1,1.11,1.72,1.41h0Z"/>
      <path class="uuid-a78811c6-ee02-418e-9e8d-ee6f691092fa" d="M432.23,58.125c.4-.37.7-.77.92-1.19h.12v2.11h3.47v-10.27c0-1.02-.18-1.87-.55-2.55-.37-.68-.86-1.22-1.46-1.61s-1.28-.68-2.01-.85c-.73-.17-1.47-.26-2.21-.26-1.07,0-2.05.16-2.94.47-.89.32-1.63.79-2.25,1.42-.61.63-1.05,1.41-1.32,2.34l3.38.48c.18-.53.53-.98,1.04-1.37.52-.39,1.22-.58,2.1-.58.84,0,1.48.21,1.93.62s.67,1,.67,1.75v.06c0,.35-.13.6-.38.76-.26.16-.66.28-1.22.36s-1.29.16-2.19.26c-.75.08-1.47.21-2.16.38-.7.18-1.32.43-1.87.77-.55.34-.99.79-1.31,1.36-.32.57-.48,1.28-.48,2.15,0,1,.23,1.85.67,2.54.45.68,1.06,1.2,1.84,1.55s1.65.52,2.62.52c.8,0,1.5-.11,2.09-.33.6-.22,1.09-.52,1.49-.89h.01ZM427.73,56.185c-.49-.34-.73-.84-.73-1.51,0-.47.12-.85.37-1.14s.58-.53,1.01-.69c.43-.17.91-.29,1.45-.36.24-.03.52-.07.85-.12s.66-.1.99-.16.63-.13.9-.21c.27-.08.46-.17.57-.26v1.81c0,.57-.14,1.09-.43,1.57-.29.48-.7.86-1.23,1.15s-1.16.43-1.89.43-1.37-.17-1.86-.51h0Z"/>
      <g>
        <path class="uuid-a78811c6-ee02-418e-9e8d-ee6f691092fa" d="M442.21,41.525c.58,0,1.07-.19,1.48-.57s.61-.84.61-1.38-.2-1-.61-1.39-.9-.58-1.48-.58-1.07.19-1.48.57c-.41.38-.62.84-.62,1.38s.21,1,.62,1.39.91.58,1.48.58Z"/>
        <rect class="uuid-a78811c6-ee02-418e-9e8d-ee6f691092fa" x="440.4" y="43.695" width="3.61" height="15.34"/>
      </g>
      <path class="uuid-a78811c6-ee02-418e-9e8d-ee6f691092fa" d="M457.57,49.825v9.21h3.62v-9.77c0-1.23-.21-2.27-.64-3.13s-1.05-1.51-1.84-1.97c-.79-.45-1.71-.68-2.77-.68-1.15,0-2.11.25-2.88.76-.78.51-1.34,1.19-1.69,2.05h-.18v-2.61h-3.45v15.34h3.61v-8.99c0-.74.14-1.37.41-1.89s.66-.92,1.15-1.19,1.05-.41,1.68-.41c.93,0,1.66.29,2.19.87s.79,1.38.79,2.41h0Z"/>
      <path class="uuid-a78811c6-ee02-418e-9e8d-ee6f691092fa" d="M476.48,56.995c.56-.74.84-1.59.84-2.55,0-1.1-.36-1.99-1.07-2.67s-1.79-1.18-3.24-1.49l-2.62-.56c-.78-.18-1.34-.41-1.67-.69s-.5-.64-.49-1.09c0-.52.24-.94.75-1.27s1.14-.49,1.89-.49c.56,0,1.03.09,1.42.27.39.18.69.42.92.71.23.29.39.61.48.94l3.3-.36c-.25-1.3-.89-2.34-1.92-3.11s-2.45-1.15-4.25-1.15c-1.22,0-2.31.19-3.24.57s-1.66.92-2.19,1.62c-.52.7-.78,1.52-.77,2.46,0,1.12.34,2.04,1.05,2.77.71.73,1.79,1.25,3.27,1.55l2.62.55c.71.15,1.23.37,1.56.66.34.29.5.65.5,1.09,0,.52-.26.96-.78,1.31-.52.35-1.21.53-2.07.53s-1.51-.18-2.03-.53-.86-.88-1.02-1.57l-3.53.34c.22,1.41.9,2.51,2.05,3.3,1.15.79,2.66,1.18,4.53,1.18,1.28,0,2.41-.21,3.39-.62s1.76-.99,2.31-1.72l.01.02Z"/>
    </g>
    <g>
      <path class="uuid-a78811c6-ee02-418e-9e8d-ee6f691092fa" d="M254.92,74.905c-.37-.22-.76-.37-1.15-.44-.4-.07-.75-.11-1.05-.11-.48,0-.96.06-1.45.19s-.94.36-1.36.68c-.41.32-.74.77-.99,1.35l1.38.49c.16-.35.44-.67.83-.97s.94-.46,1.63-.46,1.17.17,1.5.51.5.81.5,1.42v.05c0,.23-.08.4-.25.49-.17.1-.43.16-.79.2s-.83.1-1.4.17c-.44.06-.88.13-1.31.23s-.83.24-1.19.43c-.36.19-.64.46-.86.8-.21.34-.32.78-.32,1.32,0,.62.14,1.14.43,1.58.29.43.68.76,1.17.99.49.23,1.03.34,1.63.34.55,0,1.02-.08,1.4-.25.38-.16.69-.36.92-.6.23-.23.39-.45.49-.66h.07v1.28h1.46v-6.24c0-.75-.12-1.35-.37-1.8s-.56-.78-.93-1.01l.01.02ZM254.76,80.525c0,.39-.1.77-.31,1.13s-.5.65-.9.88-.88.34-1.46.34-1.06-.13-1.43-.39c-.38-.26-.56-.64-.56-1.14,0-.37.1-.66.3-.88s.46-.38.79-.49.68-.19,1.06-.24c.16-.02.36-.05.61-.08s.51-.07.78-.11.51-.09.72-.15.34-.13.4-.2v1.33Z"/>
      <path class="uuid-a78811c6-ee02-418e-9e8d-ee6f691092fa" d="M262.63,82.645c-.1.02-.23.03-.39.03-.21,0-.42-.03-.61-.1-.19-.07-.35-.2-.47-.41s-.18-.51-.18-.92v-5.53h2.02v-1.23h-2.02v-2.27h-1.46v2.27h-1.43v1.23h1.43v5.92c0,.55.13,1.01.39,1.37s.58.63.97.81.79.26,1.21.26c.27,0,.5-.02.67-.06.18-.04.31-.08.41-.11l-.3-1.31c-.06.01-.14.03-.25.05h.01Z"/>
      <path class="uuid-a78811c6-ee02-418e-9e8d-ee6f691092fa" d="M276.98,71.855c-.63-.36-1.44-.53-2.43-.53h-4.27v12.63h1.53v-4.61h2.76c.98,0,1.79-.18,2.42-.54s1.1-.84,1.4-1.45c.3-.61.45-1.29.45-2.03s-.15-1.42-.46-2.02-.77-1.08-1.4-1.44v-.01ZM277.05,76.685c-.19.4-.49.72-.9.95-.41.24-.96.35-1.63.35h-2.71v-5.31h2.69c.69,0,1.24.11,1.65.34.42.23.72.54.9.94.19.4.28.85.28,1.36s-.09.96-.28,1.36v.01Z"/>
      <rect class="uuid-a78811c6-ee02-418e-9e8d-ee6f691092fa" x="281.11" y="71.325" width="1.46" height="12.63"/>
      <path class="uuid-a78811c6-ee02-418e-9e8d-ee6f691092fa" d="M288.78,82.035h-.1l-2.62-7.55h-1.58l3.5,9.52-.27.74c-.18.48-.37.83-.58,1.05s-.45.34-.72.36c-.27.03-.58,0-.94-.1l-.37,1.28c.07.04.21.08.4.11.19.04.41.06.66.06.44,0,.84-.08,1.19-.23.35-.16.66-.4.93-.72s.49-.73.67-1.22l4.02-10.86h-1.58l-2.62,7.55.01.01Z"/>
      <path class="uuid-a78811c6-ee02-418e-9e8d-ee6f691092fa" d="M304.45,74.355c-.68,0-1.26.14-1.75.43-.48.29-.85.68-1.09,1.17h-.1c-.24-.51-.56-.9-.98-1.18-.42-.28-.94-.42-1.56-.42s-1.14.14-1.58.42-.76.68-.96,1.18h-.12v-1.48h-1.41v9.47h1.46v-5.92c0-.46.1-.87.3-1.23.2-.36.46-.63.79-.84.33-.2.68-.3,1.06-.3.55,0,1,.17,1.35.5s.53.77.53,1.3v6.49h1.48v-6.17c0-.61.18-1.12.55-1.52s.88-.6,1.55-.6c.52,0,.97.15,1.35.45s.57.8.57,1.5v6.34h1.46v-6.34c0-1.11-.27-1.94-.81-2.46s-1.23-.79-2.08-.79h-.01Z"/>
      <path class="uuid-a78811c6-ee02-418e-9e8d-ee6f691092fa" d="M316.1,74.965c-.64-.41-1.39-.61-2.25-.61s-1.6.2-2.25.61-1.15.98-1.5,1.71c-.36.74-.54,1.6-.54,2.58s.18,1.83.54,2.57c.36.73.86,1.3,1.5,1.71s1.39.61,2.25.61,1.6-.2,2.25-.61,1.15-.98,1.5-1.71c.36-.73.54-1.59.54-2.57s-.18-1.85-.54-2.58c-.36-.74-.86-1.31-1.5-1.71ZM316.39,81.035c-.2.54-.51.98-.93,1.31s-.95.5-1.6.5-1.18-.17-1.6-.5-.73-.77-.93-1.31-.3-1.13-.3-1.76.1-1.22.3-1.77c.2-.55.51-.99.93-1.33s.95-.51,1.6-.51,1.18.17,1.6.51.73.78.93,1.33.3,1.14.3,1.77-.1,1.22-.3,1.76Z"/>
      <path class="uuid-a78811c6-ee02-418e-9e8d-ee6f691092fa" d="M326.34,80.085c0,.59-.13,1.08-.39,1.46s-.57.67-.95.85-.75.28-1.11.28c-.6,0-1.1-.21-1.49-.62s-.58-.96-.58-1.65v-5.92h-1.46v6.02c0,.81.13,1.47.39,2s.63.92,1.09,1.18.99.39,1.58.39c.72,0,1.31-.17,1.78-.5.47-.34.81-.74,1.04-1.22h.1v1.6h1.46v-9.47h-1.46v5.6h0Z"/>
      <path class="uuid-a78811c6-ee02-418e-9e8d-ee6f691092fa" d="M334.21,82.645c-.1.02-.23.03-.39.03-.21,0-.42-.03-.61-.1s-.35-.2-.47-.41-.18-.51-.18-.92v-5.53h2.02v-1.23h-2.02v-2.27h-1.46v2.27h-1.43v1.23h1.43v5.92c0,.55.13,1.01.39,1.37s.58.63.97.81.79.26,1.21.26c.27,0,.5-.02.67-.06.18-.04.31-.08.41-.11l-.3-1.31c-.06.01-.14.03-.25.05h.01Z"/>
      <path class="uuid-a78811c6-ee02-418e-9e8d-ee6f691092fa" d="M343.03,74.745c-.49-.26-1.05-.39-1.7-.39-.74,0-1.34.14-1.79.43-.45.29-.78.68-1,1.17h-.12v-4.64h-1.46v12.63h1.46v-5.7c0-.55.11-1.02.32-1.41.22-.39.51-.68.89-.88.38-.2.8-.3,1.28-.3.69,0,1.22.21,1.61.62s.58,1,.58,1.75v5.92h1.46v-6.02c0-.81-.13-1.49-.4-2.01-.27-.53-.65-.92-1.13-1.18v.01Z"/>
      <path class="uuid-a78811c6-ee02-418e-9e8d-ee6f691092fa" d="M359.59,78.025c-.37-.26-.76-.47-1.17-.62s-.77-.27-1.1-.36l-1.28-.35c-.23-.06-.49-.14-.77-.24s-.55-.23-.8-.39-.46-.36-.63-.6-.24-.53-.24-.87c0-.4.12-.76.35-1.08.23-.32.56-.57.97-.75s.91-.27,1.47-.27c.76,0,1.41.17,1.94.52s.83.83.9,1.46h1.48c-.02-.64-.22-1.21-.59-1.71s-.87-.9-1.51-1.19-1.36-.43-2.17-.43-1.53.15-2.19.44-1.17.71-1.55,1.23-.58,1.15-.58,1.85c0,.85.29,1.54.86,2.07.58.53,1.36.93,2.34,1.21l1.55.44c.44.12.86.27,1.24.43.38.16.69.38.92.64s.35.6.35,1.02c0,.46-.14.86-.41,1.21s-.64.61-1.1.8-.99.29-1.57.29c-.5,0-.97-.08-1.4-.23s-.79-.38-1.07-.69c-.28-.31-.44-.7-.48-1.18h-1.58c.05.69.26,1.3.64,1.82s.89.93,1.55,1.22c.66.29,1.44.44,2.35.44.97,0,1.8-.16,2.48-.49.68-.32,1.2-.76,1.55-1.31.36-.55.53-1.17.53-1.85,0-.59-.12-1.09-.36-1.5s-.55-.74-.92-1v.02Z"/>
      <path class="uuid-a78811c6-ee02-418e-9e8d-ee6f691092fa" d="M366.95,82.645c-.1.02-.23.03-.39.03-.21,0-.42-.03-.61-.1s-.35-.2-.47-.41-.18-.51-.18-.92v-5.53h2.02v-1.23h-2.02v-2.27h-1.46v2.27h-1.43v1.23h1.43v5.92c0,.55.13,1.01.39,1.37s.58.63.97.81.79.26,1.21.26c.27,0,.5-.02.67-.06.18-.04.31-.08.41-.11l-.3-1.31c-.06.01-.14.03-.25.05h.01Z"/>
      <path class="uuid-a78811c6-ee02-418e-9e8d-ee6f691092fa" d="M375.35,74.905c-.37-.22-.76-.37-1.15-.44-.4-.07-.75-.11-1.05-.11-.48,0-.96.06-1.45.19-.49.13-.94.36-1.36.68-.41.32-.74.77-.99,1.35l1.38.49c.16-.35.44-.67.83-.97s.94-.46,1.63-.46,1.17.17,1.5.51.5.81.5,1.42v.05c0,.23-.08.4-.25.49-.17.1-.43.16-.79.2s-.83.1-1.4.17c-.44.06-.88.13-1.31.23s-.83.24-1.19.43c-.36.19-.64.46-.86.8-.21.34-.32.78-.32,1.32,0,.62.14,1.14.43,1.58.29.43.68.76,1.17.99.49.23,1.03.34,1.63.34.55,0,1.02-.08,1.4-.25.38-.16.69-.36.92-.6.23-.23.39-.45.49-.66h.07v1.28h1.46v-6.24c0-.75-.12-1.35-.37-1.8s-.56-.78-.93-1.01l.01.02ZM375.19,80.525c0,.39-.1.77-.31,1.13s-.5.65-.9.88-.88.34-1.46.34-1.06-.13-1.43-.39c-.38-.26-.56-.64-.56-1.14,0-.37.1-.66.3-.88s.46-.38.79-.49c.33-.11.68-.19,1.06-.24.16-.02.36-.05.61-.08s.51-.07.78-.11.51-.09.72-.15.34-.13.4-.2v1.33Z"/>
      <path class="uuid-a78811c6-ee02-418e-9e8d-ee6f691092fa" d="M383.06,82.645c-.1.02-.23.03-.39.03-.21,0-.42-.03-.61-.1s-.35-.2-.47-.41-.18-.51-.18-.92v-5.53h2.02v-1.23h-2.02v-2.27h-1.46v2.27h-1.43v1.23h1.43v5.92c0,.55.13,1.01.39,1.37s.58.63.97.81.79.26,1.21.26c.27,0,.5-.02.67-.06.18-.04.31-.08.41-.11l-.3-1.31c-.06.01-.14.03-.25.05h.01Z"/>
      <path class="uuid-a78811c6-ee02-418e-9e8d-ee6f691092fa" d="M392.13,75.405c-.39-.37-.83-.63-1.31-.8-.48-.16-.97-.25-1.46-.25-.86,0-1.6.21-2.24.63s-1.14,1-1.49,1.74-.53,1.6-.53,2.57.18,1.82.53,2.55c.36.73.86,1.3,1.52,1.7s1.45.61,2.36.61c.64,0,1.22-.1,1.73-.3s.95-.48,1.3-.84.6-.78.75-1.26l-1.41-.39c-.12.33-.3.6-.52.82-.23.22-.5.38-.81.49s-.66.16-1.04.16c-.59,0-1.1-.13-1.55-.39-.44-.26-.79-.63-1.04-1.13-.22-.45-.33-.99-.35-1.62h6.87v-.62c0-.88-.12-1.63-.35-2.23s-.55-1.09-.94-1.46l-.02.02ZM386.56,78.455c.03-.44.12-.86.31-1.25.23-.46.55-.83.97-1.11.42-.29.92-.43,1.5-.43.53,0,.98.12,1.37.36s.69.57.9.99c.21.42.32.9.32,1.43h-5.38l.01.01Z"/>
      <path class="uuid-a78811c6-ee02-418e-9e8d-ee6f691092fa" d="M409.02,79.565c0,.62-.13,1.16-.4,1.64-.27.48-.66.86-1.16,1.13-.51.27-1.11.41-1.81.41s-1.31-.14-1.81-.41-.89-.65-1.16-1.13-.41-1.03-.41-1.64v-8.24h-1.53v8.36c0,.86.2,1.63.61,2.31.4.68.98,1.21,1.71,1.6s1.6.58,2.59.58,1.85-.19,2.59-.58c.74-.39,1.31-.92,1.71-1.6.4-.68.61-1.45.61-2.31v-8.36h-1.53v8.24h-.01Z"/>
      <path class="uuid-a78811c6-ee02-418e-9e8d-ee6f691092fa" d="M419.39,74.745c-.48-.26-1.04-.39-1.68-.39-.71,0-1.3.15-1.75.44s-.79.68-1.01,1.16h-.12v-1.48h-1.41v9.47h1.46v-5.7c0-.55.1-1.02.31-1.41.21-.39.5-.68.86-.88.36-.2.78-.3,1.24-.3.67,0,1.21.21,1.59.63.39.42.58,1,.58,1.74v5.92h1.46v-6.02c0-.81-.13-1.47-.4-2s-.64-.92-1.12-1.18h-.01Z"/>
      <path class="uuid-a78811c6-ee02-418e-9e8d-ee6f691092fa" d="M424.31,70.925c-.28,0-.53.1-.73.29-.2.19-.31.43-.31.7s.1.5.31.7c.2.19.45.29.73.29s.53-.1.73-.29c.2-.19.31-.42.31-.7s-.1-.5-.31-.7c-.2-.19-.45-.29-.73-.29Z"/>
      <rect class="uuid-a78811c6-ee02-418e-9e8d-ee6f691092fa" x="423.57" y="74.485" width="1.46" height="9.47"/>
      <polygon class="uuid-a78811c6-ee02-418e-9e8d-ee6f691092fa" points="431.25 82.035 431.15 82.035 428.53 74.485 426.95 74.485 430.46 83.955 431.94 83.955 435.44 74.485 433.86 74.485 431.25 82.035"/>
      <path class="uuid-a78811c6-ee02-418e-9e8d-ee6f691092fa" d="M443.62,75.405c-.39-.37-.83-.63-1.31-.8-.48-.16-.97-.25-1.46-.25-.86,0-1.6.21-2.24.63s-1.14,1-1.49,1.74-.53,1.6-.53,2.57.18,1.82.53,2.55c.36.73.86,1.3,1.52,1.7s1.45.61,2.36.61c.64,0,1.22-.1,1.73-.3s.95-.48,1.3-.84.6-.78.75-1.26l-1.41-.39c-.12.33-.3.6-.52.82-.23.22-.5.38-.81.49s-.66.16-1.04.16c-.59,0-1.1-.13-1.55-.39-.44-.26-.79-.63-1.04-1.13-.22-.45-.33-.99-.35-1.62h6.87v-.62c0-.88-.12-1.63-.35-2.23s-.55-1.09-.94-1.46l-.02.02ZM438.06,78.455c.03-.44.12-.86.31-1.25.23-.46.55-.83.97-1.11.42-.29.92-.43,1.5-.43.53,0,.98.12,1.37.36s.69.57.9.99c.21.42.32.9.32,1.43h-5.38l.01.01Z"/>
      <path class="uuid-a78811c6-ee02-418e-9e8d-ee6f691092fa" d="M451.11,74.335c-.57,0-1.08.15-1.53.44-.45.29-.76.67-.94,1.14h-.1v-1.43h-1.41v9.47h1.46v-6c0-.43.1-.81.31-1.14s.49-.6.85-.79c.36-.19.77-.29,1.23-.29.19,0,.38.01.55.04s.29.05.34.06v-1.48c-.08,0-.2-.01-.36-.02h-.4Z"/>
      <path class="uuid-a78811c6-ee02-418e-9e8d-ee6f691092fa" d="M457.97,78.755l-1.41-.35c-.56-.14-.97-.31-1.23-.52s-.39-.5-.39-.86c0-.41.19-.74.58-1.01s.87-.4,1.45-.4c.42,0,.77.07,1.04.2s.49.31.64.52.28.42.36.64l1.31-.37c-.23-.67-.61-1.22-1.14-1.63-.54-.41-1.27-.62-2.21-.62-.67,0-1.26.12-1.79.35s-.94.56-1.24.97-.45.88-.45,1.42c0,.65.2,1.2.61,1.63.4.43,1.04.75,1.91.96l1.58.37c.48.11.83.28,1.06.5s.34.5.34.83c0,.41-.2.76-.6,1.05-.4.29-.94.44-1.62.44-.6,0-1.08-.13-1.45-.38s-.62-.64-.75-1.15l-1.38.35c.17.81.57,1.42,1.2,1.84s1.43.63,2.4.63c.74,0,1.38-.12,1.94-.37.55-.25.99-.58,1.3-1.01s.47-.91.47-1.46c0-.66-.21-1.2-.62-1.63-.42-.42-1.05-.74-1.89-.94h-.02Z"/>
      <rect class="uuid-a78811c6-ee02-418e-9e8d-ee6f691092fa" x="462.68" y="74.485" width="1.46" height="9.47"/>
      <path class="uuid-a78811c6-ee02-418e-9e8d-ee6f691092fa" d="M463.42,70.925c-.28,0-.53.1-.73.29-.2.19-.31.43-.31.7s.1.5.31.7c.2.19.45.29.73.29s.53-.1.73-.29c.2-.19.31-.42.31-.7s-.1-.5-.31-.7c-.2-.19-.45-.29-.73-.29Z"/>
      <path class="uuid-a78811c6-ee02-418e-9e8d-ee6f691092fa" d="M470.55,82.645c-.1.02-.23.03-.39.03-.21,0-.42-.03-.61-.1s-.35-.2-.47-.41-.18-.51-.18-.92v-5.53h2.02v-1.23h-2.02v-2.27h-1.46v2.27h-1.43v1.23h1.43v5.92c0,.55.13,1.01.39,1.37s.58.63.97.81.79.26,1.21.26c.27,0,.5-.02.67-.06.18-.04.31-.08.41-.11l-.3-1.31c-.06.01-.14.03-.25.05h.01Z"/>
      <path class="uuid-a78811c6-ee02-418e-9e8d-ee6f691092fa" d="M479.29,74.485l-2.62,7.55h-.1l-2.62-7.55h-1.58l3.5,9.52-.27.74c-.18.48-.37.83-.58,1.05s-.45.34-.72.36c-.27.03-.58,0-.94-.1l-.37,1.28c.07.04.21.08.4.11.19.04.41.06.66.06.44,0,.84-.08,1.19-.23.35-.16.66-.4.93-.72s.49-.73.67-1.22l4.02-10.86h-1.58l.0099.01Z"/>
    </g>
  </g>
  <polygon class="uuid-ece0d693-9b25-40f8-a672-4fff7a64c257" points="21.33 0 31.08 0 48.28 70.18 48.89 70.18 66.11 0 75.85 0 92.99 70.77 109.35 0 120.02 0 136.43 70.9 153.6 0 153.69 0 163.28 0 163.35 0 180.55 70.18 181.16 70.18 198.38 0 208.13 0 229.44 88.06 219.85 88.06 203.56 16.34 202.8 16.34 186.2 88.06 175.53 88.06 159.12 17.17 141.95 88.06 132.27 88.06 132.2 88.06 114.72 17.43 97.17 88.06 87.43 88.06 70.29 17.3 53.93 88.06 43.26 88.06 26.66 16.34 25.9 16.34 9.61 88.06 0 88.06 21.33 0"/>
</svg>